<svg xmlns="http://www.w3.org/2000/svg" xmlns:xlink="http://www.w3.org/1999/xlink" id="Layer_1" x="0" y="0" version="1.1" viewBox="0 0 200 270" style="enable-background:new 0 0 200 270" xml:space="preserve"><style type="text/css">.st0{fill:#efa390}.st1{opacity:.5;fill:#fff}.st2{fill:none}.st3{font-family:&apos;MyriadPro-Bold&apos;,sans-serif}.st4{font-size:46px}.st5{fill:#000;opacity:.5}.st6{font-size:40px}</style><path d="M22.9,1.2C10,1.2,0,11.1,0,24.1V246c0,11.9,10,22.9,22.9,22.9h154.2c11.9,0,22.9-10,22.9-22.9V60.9L140.3,1.2	H22.9z" class="st0"/><path d="M139.3,38V1.2L199,60.9h-36.8C149.3,60.9,139.3,50.9,139.3,38z" class="st1"/><circle cx="99.5" cy="116.6" r="49.8" class="st1"/><rect width="64.3" height="35.6" x="67.3" y="99.7" class="st2"/><text class="st3 st4" transform="matrix(1 0 0 1 86.7372 132.3372)">2</text><rect width="179.6" height="45.4" x="10.2" y="209" class="st2"/><text class="st5 st3 st6" transform="matrix(1 0 0 1 80.9805 237.3994)">JS</text></svg>